Coordinates
version=1
nRows=12
nColumns=46
inDegrees=yes

Units are S.I. units (second, meters, Newtons, ...)
Angles are in degrees.

endheader
time	pelvis_tilt	pelvis_list	pelvis_rotation	pelvis_tx	pelvis_ty	pelvis_tz	bb_angle	bb_tx	bb_ty	bb_tz	hip_flexion_r	hip_adduction_r	hip_rotation_r	knee_angle_r	knee_angle_r_beta	ankle_angle_r	subtalar_angle_r	mtp_angle_r	crank_angle_r	hip_flexion_l	hip_adduction_l	hip_rotation_l	knee_angle_l	knee_angle_l_beta	ankle_angle_l	subtalar_angle_l	mtp_angle_l	crank_angle_l	lumbar_extension	lumbar_bending	lumbar_rotation	arm_flex_r	arm_add_r	arm_rot_r	elbow_flex_r	pro_sup_r	wrist_flex_r	wrist_dev_r	arm_flex_l	arm_add_l	arm_rot_l	elbow_flex_l	pro_sup_l	wrist_flex_l	wrist_dev_l
      5.00500000	    -16.69046990	     -9.20000767	     -3.60551636	      0.11355233	      1.11474132	     -0.28326875	      0.00000000	      0.50000000	      0.00000000	      0.25000000	     90.01221837	      0.77679863	     -3.15737577	    103.01276960	      1.79791200	      9.36021611	    -13.29681610	      0.00000000	      0.00000000	     46.70385523	    -11.73589012	      2.00871644	     45.47754245	      0.79373285	    -21.20219796	    -14.44554535	      0.00000000	      0.00000000	    -59.33612398	      4.13575490	      1.20112071	     89.79184308	      0.51160841	     27.22335902	     39.72458824	     23.79900810	      0.00000000	      0.00000000	     89.68852529	    -14.28432540	     32.03860407	     43.31295936	     26.31814682	      0.00000000	      0.00000000
      5.01000000	    -16.65299287	     -8.97138389	     -3.53549418	      0.11352704	      1.11533056	     -0.28288630	      0.00000000	      0.50000000	      0.00000000	      0.25000000	     89.12859280	      0.92918783	     -2.97207145	    101.14579246	      1.76532710	     10.49583896	    -13.48966594	      0.00000000	      0.00000000	     47.29870064	    -11.37484687	      2.46495758	     47.64007231	      0.83147612	    -21.08668312	    -15.04920040	      0.00000000	      0.00000000	    -59.33517230	      3.96538804	      0.85763048	     89.79035358	      0.58996618	     27.29125909	     39.64059754	     23.74150840	      0.00000000	      0.00000000	     89.69889234	    -14.38451527	     32.11024856	     43.21001232	     26.27944947	      0.00000000	      0.00000000
      5.01500000	    -16.64205316	     -8.94113304	     -3.41102261	      0.11353651	      1.11566836	     -0.28257479	      0.00000000	      0.50000000	      0.00000000	      0.25000000	     88.14194171	      1.04356590	     -3.03720131	     99.08743595	      1.72940200	     11.55591414	    -13.70104700	      0.00000000	      0.00000000	     48.04675560	    -11.13972429	      3.07789313	     49.96595873	      0.87207049	    -20.80527023	    -15.73317515	      0.00000000	      0.00000000	    -59.32633772	      4.03405364	      0.67388756	     89.78996805	      0.77131688	     27.39986783	     39.61085654	     23.69308525	      0.00000000	      0.00000000	     89.69682126	    -14.55344758	     32.18853730	     43.09367683	     26.23718502	      0.00000000	      0.00000000
      5.02000000	    -16.66129917	     -8.89222740	     -3.26124802	      0.11359832	      1.11589443	     -0.28227608	      0.00000000	      0.50000000	      0.00000000	      0.25000000	     87.10822594	      1.08358387	     -3.09213684	     96.91101307	      1.69141626	     12.34808668	    -13.84835117	      0.00000000	      0.00000000	     48.85839412	    -10.85900315	      3.71381078	     52.31481070	      0.91306569	    -20.43731928	    -16.22949792	      0.00000000	      0.00000000	    -59.31315470	      4.12122321	      0.49100989	     89.79128807	      0.89459186	     27.48465674	     39.55921354	     23.64110162	      0.00000000	      0.00000000	     89.69665774	    -14.70067768	     32.29527213	     43.00608406	     26.20269905	      0.00000000	      0.00000000
      5.02500000	    -16.88549937	     -9.17134027	     -3.05798667	      0.11365262	      1.11565575	     -0.28193944	      0.00000000	      0.50000000	      0.00000000	      0.25000000	     86.17255770	      1.11853909	     -3.58938036	     94.54375680	      1.65009984	     12.96301245	    -14.12552617	      0.00000000	      0.00000000	     50.05067602	    -10.79686724	      4.66318318	     54.84365034	      0.95720227	    -19.71777801	    -16.32231450	      0.00000000	      0.00000000	    -59.11891011	      4.54103420	      0.60194127	     89.79378094	      1.10778287	     27.68658072	     39.30355002	     23.47992267	      0.00000000	      0.00000000	     89.69244579	    -15.02801286	     32.62462598	     42.90721968	     26.13949041	      0.00000000	      0.00000000
      5.03000000	    -16.90398195	     -8.98723832	     -2.86741730	      0.11389980	      1.11550760	     -0.28146312	      0.00000000	      0.50000000	      0.00000000	      0.25000000	     85.08365956	      1.09656588	     -3.57179084	     92.26469964	      1.61032279	     13.36172276	    -14.46740242	      0.00000000	      0.00000000	     50.86716787	    -10.41189818	      5.14356571	     57.22074667	      0.99869043	    -18.95003641	    -16.46788269	      0.00000000	      0.00000000	    -58.99745800	      4.51984554	      0.35275993	     89.79524134	      1.07135328	     27.67428631	     39.26733966	     23.37316946	      0.00000000	      0.00000000	     89.69421101	    -15.13756475	     32.91029964	     42.88102380	     26.10154342	      0.00000000	      0.00000000
      5.03500000	    -16.89141249	     -8.77432358	     -2.65330778	      0.11418044	      1.11529820	     -0.28095149	      0.00000000	      0.50000000	      0.00000000	      0.25000000	     83.95264479	      1.02111287	     -3.57022315	     89.95975411	      1.57009390	     13.54376698	    -14.82127753	      0.00000000	      0.00000000	     51.67963148	    -10.01832042	      5.54998328	     59.61852835	      1.04053961	    -18.12995274	    -16.53374626	      0.00000000	      0.00000000	    -58.95617819	      4.50046474	      0.07808634	     89.79372372	      1.08992238	     27.70644935	     39.19897928	     23.28311154	      0.00000000	      0.00000000	     89.69431475	    -15.26567341	     33.12139366	     42.89355454	     26.07499404	      0.00000000	      0.00000000
      5.04000000	    -16.97709722	     -8.63104538	     -2.46437164	      0.11455847	      1.11478372	     -0.28015659	      0.00000000	      0.50000000	      0.00000000	      0.25000000	     82.88606259	      0.99263199	     -3.67567895	     87.56663252	      1.52832605	     13.33239118	    -15.39290745	      0.00000000	      0.00000000	     52.65898504	     -9.76726380	      5.93732199	     62.08532290	      1.08359330	    -17.03961415	    -16.04546264	      0.00000000	      0.00000000	    -58.79987113	      4.51457006	     -0.15558000	     89.79265610	      1.15366007	     27.82027046	     38.99938465	     23.07838533	      0.00000000	      0.00000000	     89.69405700	    -15.59151917	     33.50816395	     42.95535611	     26.01911008	      0.00000000	      0.00000000
      5.04500000	    -16.94211877	     -8.41007514	     -2.26143302	      0.11500569	      1.11437157	     -0.27931618	      0.00000000	      0.50000000	      0.00000000	      0.25000000	     81.68470776	      0.91960584	     -3.67151155	     85.20342625	      1.48708032	     13.02845592	    -15.68650583	      0.00000000	      0.00000000	     53.49228907	     -9.45764971	      6.22409304	     64.51569924	      1.12601137	    -15.94840535	    -15.77921934	      0.00000000	      0.00000000	    -58.77590987	      4.49698636	     -0.51930466	     89.79013636	      1.38831880	     28.25140388	     38.74191516	     22.91478994	      0.00000000	      0.00000000	     89.69432009	    -15.93731968	     33.77986871	     43.09726882	     25.98322453	      0.00000000	      0.00000000
      5.05000000	    -16.83274051	     -7.94841473	     -2.03952225	      0.11568465	      1.11398154	     -0.27861113	      0.00000000	      0.50000000	      0.00000000	      0.25000000	     80.43676653	      0.68317675	     -3.50779332	     82.88028653	      1.44653389	     12.66924842	    -15.79552733	      0.00000000	      0.00000000	     54.18552816	     -8.94444733	      6.26298233	     66.87896360	      1.16725812	    -15.01314649	    -15.98403180	      0.00000000	      0.00000000	    -58.82098376	      4.31143598	     -0.99763411	     89.78836259	      1.33362453	     28.31892288	     38.70333548	     22.87050373	      0.00000000	      0.00000000	     89.69566242	    -16.01741094	     33.87805564	     43.15835548	     25.97600760	      0.00000000	      0.00000000
      5.05500000	    -16.82131047	     -7.74436603	     -1.86888801	      0.11625370	      1.11326245	     -0.27746467	      0.00000000	      0.50000000	      0.00000000	      0.25000000	     79.24651412	      0.64315382	     -3.55579497	     80.46982950	      1.40446347	     11.82008172	    -16.41567136	      0.00000000	      0.00000000	     55.13107001	     -8.76400655	      6.46279726	     69.35998140	      1.21056004	    -13.69410554	    -15.10391353	      0.00000000	      0.00000000	    -58.76304929	      4.27462383	     -1.31432987	     89.78704307	      1.42411748	     28.61691656	     38.56133992	     22.73352246	      0.00000000	      0.00000000	     89.69212229	    -16.39209709	     34.20520316	     43.42502851	     25.96980698	      0.00000000	      0.00000000
      5.06000000	    -16.70303281	     -7.09356075	     -1.58981984	      0.11697511	      1.11270868	     -0.27660697	      0.00000000	      0.50000000	      0.00000000	      0.25000000	     77.99521942	      0.27267952	     -3.13555538	     78.22799883	      1.36533615	     11.37865978	    -16.18194201	      0.00000000	      0.00000000	     55.85774237	     -8.13897897	      6.27889269	     71.60452513	      1.24973472	    -13.24807950	    -15.28037202	      0.00000000	      0.00000000	    -58.77781447	      3.93722432	     -1.96482977	     89.78428691	      1.25809060	     28.57065497	     38.56217572	     22.72019618	      0.00000000	      0.00000000	     89.69313963	    -16.31690224	     34.27451925	     43.45111969	     25.97102642	      0.00000000	      0.00000000
